<svg width="30" height="31" viewBox="0 0 30 31" fill="none" xmlns="http://www.w3.org/2000/svg">
<path fill-rule="evenodd" clip-rule="evenodd" d="M15 1C17.7006 1.03082 20.1404 1.69456 22.3193 2.99123C24.4722 4.26201 26.2631 6.06387 27.5208 8.2245C28.8095 10.4165 29.4693 12.8711 29.5 15.5882C29.4235 19.3059 28.2509 22.4811 25.9823 25.1139C23.7137 27.7468 20.8081 29.3756 17.8003 30V19.5769H20.6439L21.287 15.4808H16.9811V12.798C16.9572 12.2418 17.1331 11.6955 17.4769 11.2577C17.8213 10.8187 18.4277 10.588 19.2961 10.5655H21.8963V6.97747C21.859 6.96547 21.505 6.918 20.8343 6.83507C20.0736 6.74607 19.3087 6.69853 18.5428 6.69267C16.8095 6.70067 15.4387 7.18961 14.4303 8.15949C13.422 9.1291 12.9069 10.5319 12.8851 12.3679V15.4808H9.60821V19.5769H12.8851V30C9.19189 29.3756 6.28632 27.7468 4.0177 25.1139C1.74907 22.4811 0.576549 19.3059 0.5 15.5882C0.530627 12.871 1.19036 10.4164 2.47919 8.2245C3.73683 6.06387 5.52775 4.26201 7.68068 2.99123C9.85952 1.69481 12.2993 1.03107 15 1Z" fill="white"/>
</svg>
