<svg width="350" height="270" viewBox="0 0 350 270" fill="none" xmlns="http://www.w3.org/2000/svg">
<g opacity="0.23">
<circle cx="15" cy="15" r="15" transform="matrix(-1 0 0 1 30 0)" fill="#D9D9D9"/>
<circle cx="15" cy="15" r="15" transform="matrix(-1 0 0 1 30 40)" fill="#D9D9D9"/>
<circle cx="15" cy="15" r="15" transform="matrix(-1 0 0 1 30 80)" fill="#D9D9D9"/>
<circle cx="15" cy="15" r="15" transform="matrix(-1 0 0 1 30 120)" fill="#D9D9D9"/>
<circle cx="15" cy="15" r="15" transform="matrix(-1 0 0 1 30 160)" fill="#D9D9D9"/>
<circle cx="15" cy="15" r="15" transform="matrix(-1 0 0 1 30 200)" fill="#D9D9D9"/>
<circle cx="15" cy="15" r="15" transform="matrix(-1 0 0 1 30 240)" fill="#D9D9D9"/>
<circle cx="15" cy="15" r="15" transform="matrix(-1 0 0 1 70 0)" fill="#D9D9D9"/>
<circle cx="15" cy="15" r="15" transform="matrix(-1 0 0 1 70 40)" fill="#D9D9D9"/>
<circle cx="15" cy="15" r="15" transform="matrix(-1 0 0 1 70 80)" fill="#D9D9D9"/>
<circle cx="15" cy="15" r="15" transform="matrix(-1 0 0 1 70 120)" fill="#D9D9D9"/>
<circle cx="15" cy="15" r="15" transform="matrix(-1 0 0 1 70 160)" fill="#D9D9D9"/>
<circle cx="15" cy="15" r="15" transform="matrix(-1 0 0 1 70 200)" fill="#D9D9D9"/>
<circle cx="15" cy="15" r="15" transform="matrix(-1 0 0 1 70 240)" fill="#D9D9D9"/>
<circle cx="15" cy="15" r="15" transform="matrix(-1 0 0 1 110 0)" fill="#D9D9D9"/>
<circle cx="15" cy="15" r="15" transform="matrix(-1 0 0 1 110 40)" fill="#D9D9D9"/>
<circle cx="15" cy="15" r="15" transform="matrix(-1 0 0 1 110 80)" fill="#D9D9D9"/>
<circle cx="15" cy="15" r="15" transform="matrix(-1 0 0 1 110 120)" fill="#D9D9D9"/>
<circle cx="15" cy="15" r="15" transform="matrix(-1 0 0 1 110 160)" fill="#D9D9D9"/>
<circle cx="15" cy="15" r="15" transform="matrix(-1 0 0 1 110 200)" fill="#D9D9D9"/>
<circle cx="15" cy="15" r="15" transform="matrix(-1 0 0 1 110 240)" fill="#D9D9D9"/>
<circle cx="15" cy="15" r="15" transform="matrix(-1 0 0 1 150 0)" fill="#D9D9D9"/>
<circle cx="15" cy="15" r="15" transform="matrix(-1 0 0 1 150 40)" fill="#D9D9D9"/>
<circle cx="15" cy="15" r="15" transform="matrix(-1 0 0 1 150 80)" fill="#D9D9D9"/>
<circle cx="15" cy="15" r="15" transform="matrix(-1 0 0 1 150 120)" fill="#D9D9D9"/>
<circle cx="15" cy="15" r="15" transform="matrix(-1 0 0 1 150 160)" fill="#D9D9D9"/>
<circle cx="15" cy="15" r="15" transform="matrix(-1 0 0 1 150 200)" fill="#D9D9D9"/>
<circle cx="15" cy="15" r="15" transform="matrix(-1 0 0 1 150 240)" fill="#D9D9D9"/>
<circle cx="15" cy="15" r="15" transform="matrix(-1 0 0 1 190 0)" fill="#D9D9D9"/>
<circle cx="15" cy="15" r="15" transform="matrix(-1 0 0 1 190 40)" fill="#D9D9D9"/>
<circle cx="15" cy="15" r="15" transform="matrix(-1 0 0 1 190 80)" fill="#D9D9D9"/>
<circle cx="15" cy="15" r="15" transform="matrix(-1 0 0 1 190 120)" fill="#D9D9D9"/>
<circle cx="15" cy="15" r="15" transform="matrix(-1 0 0 1 190 160)" fill="#D9D9D9"/>
<circle cx="15" cy="15" r="15" transform="matrix(-1 0 0 1 190 200)" fill="#D9D9D9"/>
<circle cx="15" cy="15" r="15" transform="matrix(-1 0 0 1 190 240)" fill="#D9D9D9"/>
<circle cx="15" cy="15" r="15" transform="matrix(-1 0 0 1 230 0)" fill="#D9D9D9"/>
<circle cx="15" cy="15" r="15" transform="matrix(-1 0 0 1 230 40)" fill="#D9D9D9"/>
<circle cx="15" cy="15" r="15" transform="matrix(-1 0 0 1 230 80)" fill="#D9D9D9"/>
<circle cx="15" cy="15" r="15" transform="matrix(-1 0 0 1 230 120)" fill="#D9D9D9"/>
<circle cx="15" cy="15" r="15" transform="matrix(-1 0 0 1 230 160)" fill="#D9D9D9"/>
<circle cx="15" cy="15" r="15" transform="matrix(-1 0 0 1 230 200)" fill="#D9D9D9"/>
<circle cx="15" cy="15" r="15" transform="matrix(-1 0 0 1 230 240)" fill="#D9D9D9"/>
<circle cx="15" cy="15" r="15" transform="matrix(-1 0 0 1 270 0)" fill="#D9D9D9"/>
<circle cx="15" cy="15" r="15" transform="matrix(-1 0 0 1 270 40)" fill="#D9D9D9"/>
<circle cx="15" cy="15" r="15" transform="matrix(-1 0 0 1 270 80)" fill="#D9D9D9"/>
<circle cx="15" cy="15" r="15" transform="matrix(-1 0 0 1 270 120)" fill="#D9D9D9"/>
<circle cx="15" cy="15" r="15" transform="matrix(-1 0 0 1 270 160)" fill="#D9D9D9"/>
<circle cx="15" cy="15" r="15" transform="matrix(-1 0 0 1 270 200)" fill="#D9D9D9"/>
<circle cx="15" cy="15" r="15" transform="matrix(-1 0 0 1 270 240)" fill="#D9D9D9"/>
<circle cx="15" cy="15" r="15" transform="matrix(-1 0 0 1 310 0)" fill="#D9D9D9"/>
<circle cx="15" cy="15" r="15" transform="matrix(-1 0 0 1 310 40)" fill="#D9D9D9"/>
<circle cx="15" cy="15" r="15" transform="matrix(-1 0 0 1 310 80)" fill="#D9D9D9"/>
<circle cx="15" cy="15" r="15" transform="matrix(-1 0 0 1 310 120)" fill="#D9D9D9"/>
<circle cx="15" cy="15" r="15" transform="matrix(-1 0 0 1 310 160)" fill="#D9D9D9"/>
<circle cx="15" cy="15" r="15" transform="matrix(-1 0 0 1 310 200)" fill="#D9D9D9"/>
<circle cx="15" cy="15" r="15" transform="matrix(-1 0 0 1 310 240)" fill="#D9D9D9"/>
<circle cx="15" cy="15" r="15" transform="matrix(-1 0 0 1 350 0)" fill="#D9D9D9"/>
<circle cx="15" cy="15" r="15" transform="matrix(-1 0 0 1 350 40)" fill="#D9D9D9"/>
<circle cx="15" cy="15" r="15" transform="matrix(-1 0 0 1 350 80)" fill="#D9D9D9"/>
<circle cx="15" cy="15" r="15" transform="matrix(-1 0 0 1 350 120)" fill="#D9D9D9"/>
<circle cx="15" cy="15" r="15" transform="matrix(-1 0 0 1 350 160)" fill="#D9D9D9"/>
<circle cx="15" cy="15" r="15" transform="matrix(-1 0 0 1 350 200)" fill="#D9D9D9"/>
<circle cx="15" cy="15" r="15" transform="matrix(-1 0 0 1 350 240)" fill="#D9D9D9"/>
</g>
</svg>
