<svg width="30" height="30" viewBox="0 0 30 30" fill="none" xmlns="http://www.w3.org/2000/svg">
<g clip-path="url(#clip0_243_48)">
<path fill-rule="evenodd" clip-rule="evenodd" d="M15 0.00109863C23.2715 0.00109863 30 6.7296 30 15.0001C30 23.2706 23.2715 29.9991 15 29.9991C6.729 29.9991 0 23.2706 0 15.0001C0 6.7296 6.729 0.00109863 15 0.00109863ZM19.1102 9.11535L15 13.2256L10.8898 9.1151C10.3999 8.62515 9.60537 8.62467 9.11505 9.1151C8.6252 9.60495 8.6252 10.3999 9.11505 10.8897L13.2253 15.0004L9.11455 19.1107C8.6246 19.601 8.6246 20.3955 9.11455 20.8854C9.60528 21.3761 10.3993 21.3757 10.8897 20.8858L14.9999 16.775L19.1102 20.8853C19.6001 21.3751 20.3949 21.3756 20.8848 20.8857C21.3756 20.395 21.3747 19.6004 20.8848 19.1106L16.7746 15.0003L20.8848 10.8901C21.3747 10.4006 21.3756 9.60571 20.8848 9.11538C20.3949 8.62506 19.6001 8.62543 19.1102 9.11538L19.1102 9.11535Z" fill="#00994C"/>
</g>
<defs>
<clipPath id="clip0_243_48">
<rect width="30" height="30" fill="white"/>
</clipPath>
</defs>
</svg>
