<svg width="16" height="16" viewBox="0 0 16 16" fill="none" xmlns="http://www.w3.org/2000/svg">
<path d="M8.00182 9.98385C7.91293 9.98385 7.82671 9.96719 7.74316 9.93385C7.6596 9.90052 7.59027 9.85608 7.53516 9.80052L4.46849 6.73385C4.34627 6.61163 4.28516 6.45608 4.28516 6.26719C4.28516 6.0783 4.34627 5.92274 4.46849 5.80052C4.59071 5.6783 4.74627 5.61719 4.93516 5.61719C5.12405 5.61719 5.2796 5.6783 5.40182 5.80052L8.00182 8.40052L10.6018 5.80052C10.724 5.6783 10.8796 5.61719 11.0685 5.61719C11.2574 5.61719 11.4129 5.6783 11.5352 5.80052C11.6574 5.92274 11.7185 6.0783 11.7185 6.26719C11.7185 6.45608 11.6574 6.61163 11.5352 6.73385L8.46849 9.80052C8.40182 9.86719 8.3296 9.91452 8.25182 9.94252C8.17405 9.97052 8.09071 9.9843 8.00182 9.98385Z" fill="white"/>
</svg>
