<svg width="30" height="31" viewBox="0 0 30 31" fill="none" xmlns="http://www.w3.org/2000/svg">
<g clip-path="url(#clip0_1214_9018)">
<path d="M15 0.5C6.717 0.5 0 7.217 0 15.5C0 23.783 6.717 30.5 15 30.5C23.283 30.5 30 23.783 30 15.5C30 7.217 23.283 0.5 15 0.5ZM21.8488 12.1954C21.8555 12.343 21.8587 12.4913 21.8587 12.6404C21.8587 17.1898 18.3957 22.436 12.0628 22.4363C10.1184 22.4363 8.3091 21.8663 6.78543 20.8897C7.05482 20.9215 7.32903 20.9373 7.60666 20.9373C9.21982 20.9373 10.7043 20.3871 11.8829 19.4635C10.3757 19.4356 9.10492 18.4402 8.66638 17.0722C8.87627 17.1125 9.0921 17.1344 9.31343 17.1344C9.62769 17.1344 9.9321 17.0921 10.2214 17.0131C8.64601 16.6977 7.45926 15.3055 7.45926 13.6383C7.45926 13.6227 7.45926 13.6087 7.45972 13.5943C7.92366 13.8523 8.45421 14.0075 9.01909 14.0249C8.09464 13.408 7.48695 12.3536 7.48695 11.159C7.48695 10.5282 7.65747 9.93726 7.95319 9.42845C9.65103 11.5117 12.1884 12.8818 15.0499 13.0258C14.9908 12.7736 14.9604 12.5108 14.9604 12.2407C14.9604 10.3401 16.5024 8.79811 18.4037 8.79811C19.3941 8.79811 20.2885 9.21674 20.9168 9.88599C21.7012 9.73126 22.4377 9.4447 23.1031 9.05034C22.8456 9.85394 22.3 10.5282 21.5891 10.9546C22.2855 10.8713 22.9493 10.6866 23.5661 10.4124C23.1054 11.103 22.5211 11.7095 21.8488 12.1954Z" fill="white"/>
</g>
<defs>
<clipPath id="clip0_1214_9018">
<rect width="30" height="30" fill="white" transform="translate(0 0.5)"/>
</clipPath>
</defs>
</svg>
