<svg width="25" height="24" viewBox="0 0 25 24" fill="none" xmlns="http://www.w3.org/2000/svg">
<g clip-path="url(#clip0_1245_26198)">
<path d="M16.6459 10.9224L11.3438 8.02124C11.0389 7.85443 10.6785 7.86066 10.3797 8.03772C10.0807 8.21497 9.90234 8.52808 9.90234 8.87561V14.6281C9.90234 14.9739 10.0796 15.2865 10.3766 15.4639C10.5317 15.5566 10.7036 15.6031 10.8759 15.6031C11.0338 15.6031 11.192 15.5641 11.3375 15.4857L16.6399 12.6346C16.9547 12.4652 17.1511 12.138 17.1526 11.7804C17.1539 11.4228 16.9598 11.0941 16.6459 10.9224ZM11.3088 13.9044V9.60511L15.2715 11.7734L11.3088 13.9044Z" fill="black"/>
<path d="M24.7766 7.19659L24.7755 7.18561C24.7552 6.99243 24.5529 5.27417 23.7175 4.40021C22.752 3.37225 21.6574 3.24738 21.131 3.1875C21.0874 3.18256 21.0475 3.17798 21.0118 3.17322L20.9698 3.16882C17.797 2.93811 13.0053 2.90662 12.9573 2.90643L12.9531 2.90625L12.9489 2.90643C12.9009 2.90662 8.10925 2.93811 4.90784 3.16882L4.86554 3.17322C4.83148 3.1778 4.79395 3.18201 4.75311 3.18677C4.23273 3.24683 3.14984 3.37189 2.18158 4.43701C1.38599 5.30164 1.15601 6.98309 1.13239 7.17206L1.12964 7.19659C1.1225 7.27698 0.953125 9.19061 0.953125 11.1118V12.9077C0.953125 14.8288 1.1225 16.7424 1.12964 16.823L1.13092 16.8351C1.15125 17.0251 1.35339 18.7119 2.18488 19.5862C3.09271 20.5798 4.2406 20.7112 4.85803 20.7819C4.95563 20.7931 5.03967 20.8026 5.09698 20.8127L5.15247 20.8204C6.98444 20.9947 12.7283 21.0806 12.9718 21.084L12.9791 21.0842L12.9865 21.084C13.0344 21.0839 17.8259 21.0524 20.9988 20.8217L21.0407 20.8173C21.0808 20.812 21.1259 20.8072 21.1753 20.8021C21.6927 20.7471 22.7698 20.6331 23.7247 19.5824C24.5203 18.7176 24.7504 17.0361 24.7739 16.8474L24.7766 16.8228C24.7838 16.7422 24.9533 14.8288 24.9533 12.9077V11.1118C24.9531 9.19061 24.7838 7.27716 24.7766 7.19659ZM23.5467 12.9077C23.5467 14.6858 23.3914 16.517 23.3768 16.6851C23.3171 17.1482 23.0745 18.212 22.6868 18.6334C22.0892 19.2909 21.4752 19.3561 21.027 19.4035C20.9728 19.4092 20.9226 19.4147 20.8772 19.4203C17.8083 19.6423 13.1976 19.6763 12.9852 19.6776C12.7469 19.6741 7.08716 19.5875 5.31104 19.4225C5.22003 19.4077 5.1217 19.3964 5.01807 19.3846C4.49237 19.3244 3.77277 19.242 3.21942 18.6334L3.20642 18.6194C2.82556 18.2227 2.5899 17.2278 2.53003 16.6906C2.51886 16.5635 2.35956 14.7107 2.35956 12.9077V11.1118C2.35956 9.33563 2.51447 7.50641 2.52948 7.33484C2.60071 6.78937 2.8479 5.78998 3.21942 5.38605C3.83539 4.70856 4.48486 4.63348 4.91443 4.58386C4.95544 4.5791 4.99371 4.57471 5.02905 4.57013C8.14258 4.34711 12.7865 4.31396 12.9531 4.31268C13.1198 4.31378 17.762 4.34711 20.8479 4.57013C20.8858 4.57489 20.9272 4.57965 20.9717 4.58478C21.4135 4.63513 22.0813 4.7113 22.6942 5.36499L22.6998 5.37103C23.0807 5.76782 23.3163 6.78003 23.3762 7.32806C23.3868 7.448 23.5467 9.30487 23.5467 11.1118V12.9077Z" fill="black"/>
</g>
<defs>
<clipPath id="clip0_1245_26198">
<rect width="24.0001" height="24" fill="white" transform="translate(0.953125)"/>
</clipPath>
</defs>
</svg>
