<svg width="199" height="48" viewBox="0 0 199 48" fill="none" xmlns="http://www.w3.org/2000/svg">
<g clip-path="url(#clip0_1303_6993)">
<path d="M0 3.51953V45.8513L15.1224 25.6471V3.51953H0Z" fill="white"/>
<path fill-rule="evenodd" clip-rule="evenodd" d="M37.6424 3.51953H22.5312V25.6471L37.6424 45.8513V3.51953Z" fill="white"/>
<path d="M37.6155 44.9297H0V47.9962H37.6155V44.9297Z" fill="white"/>
<path d="M15.3083 3.43258C15.287 2.97825 15.3602 2.52442 15.5233 2.09851C15.6864 1.6726 15.9361 1.28345 16.2574 0.954586C16.5786 0.625717 16.9647 0.363953 17.3923 0.185111C17.8199 0.00626913 18.2802 -0.0859375 18.7452 -0.0859375C19.2103 -0.0859375 19.6705 0.00626913 20.0981 0.185111C20.5257 0.363953 20.9118 0.625717 21.2331 0.954586C21.5543 1.28345 21.804 1.6726 21.9672 2.09851C22.1303 2.52442 22.2034 2.97825 22.1822 3.43258C22.2034 3.88692 22.1303 4.34075 21.9672 4.76666C21.804 5.19257 21.5543 5.58171 21.2331 5.91058C20.9118 6.23945 20.5257 6.50122 20.0981 6.68006C19.6705 6.8589 19.2103 6.95111 18.7452 6.95111C18.2802 6.95111 17.8199 6.8589 17.3923 6.68006C16.9647 6.50122 16.5786 6.23945 16.2574 5.91058C15.9361 5.58171 15.6864 5.19257 15.5233 4.76666C15.3602 4.34075 15.287 3.88692 15.3083 3.43258Z" fill="white"/>
<path d="M189.666 23.6796C189.673 23.379 189.77 23.0871 189.946 22.8404C190.121 22.5936 190.368 22.4032 190.654 22.2929C190.94 22.1827 191.252 22.1575 191.553 22.2206C191.854 22.2838 192.128 22.4323 192.343 22.6477C192.557 22.863 192.702 23.1356 192.758 23.4311C192.815 23.7265 192.781 24.0318 192.661 24.3084C192.54 24.5851 192.339 24.8208 192.082 24.9859C191.826 25.1511 191.524 25.2383 191.217 25.2367C190.801 25.2281 190.406 25.06 190.116 24.7687C189.826 24.4774 189.664 24.0862 189.666 23.6796ZM60.7294 20.3196H44.1484V6.25H47.417V17.8783H57.4489V12.8987H64.3868C66.4671 12.9847 67.5609 13.8071 67.6729 15.3392V20.3196H60.7294ZM64.3812 17.8783V16.498C64.3212 15.7031 63.9275 15.3243 63.1858 15.3392H60.7294V17.8783H64.3812ZM100.703 17.8783V14.2664H98.2569C97.5072 14.2563 97.1127 15.1272 97.0471 15.9096V17.876L100.703 17.8783ZM97.0471 20.3196H80.4661V6.25H83.7466V17.8783H93.7762V15.1624C93.8055 14.3101 94.1553 13.4984 94.7588 12.8828C95.3623 12.2672 96.1768 11.8912 97.0463 11.8267H103.986V20.3196H97.0463H97.0471ZM73.5779 15.4988V11.6647H76.8632L76.8776 17.8024C76.9183 19.19 76.828 20.5782 76.6079 21.9495C76.455 22.6997 76.1144 23.4011 75.6166 23.991C75.0951 24.5725 74.4408 25.0256 73.7067 25.3134C72.7079 25.669 71.6484 25.8329 70.5862 25.7962C70.2293 25.7962 69.8973 25.7962 69.5916 25.7735V22.9198C69.8818 22.9729 70.1765 22.9991 70.4718 22.998C71.223 23.0485 71.9692 22.8461 72.5865 22.4245C73.0429 22.0776 73.3477 21.5742 73.4394 21.016C73.5577 20.1001 73.6039 19.1767 73.5779 18.2539V15.4988ZM119.193 20.3196H113.821C113.821 22.7844 113.836 26.2203 113.836 26.2203H110.524L110.498 20.0826C110.463 19.7706 110.501 19.455 110.609 19.1595C110.717 18.864 110.892 18.5963 111.121 18.3768C111.861 17.5943 113.836 17.8783 113.836 17.8783H115.908V11.8267H122.849C123.719 11.8908 124.535 12.2664 125.14 12.8818C125.746 13.4972 126.098 14.3091 126.129 15.1624V20.3196H119.19H119.193ZM122.849 17.8783V15.912C122.784 15.1295 122.402 14.2563 121.649 14.2688H119.191V17.8807L122.849 17.8783ZM135.44 17.8783V14.2664H133.68C132.941 14.2563 132.547 15.1272 132.48 15.9096V17.876L135.44 17.8783ZM173.126 17.8783V15.912C173.064 15.1295 172.67 14.2563 171.931 14.2688H169.473V17.8807L173.126 17.8783ZM188.709 14.779H184.862V11.4926L191.001 11.4785C192.387 11.4335 193.774 11.5252 195.141 11.7523C195.894 11.9068 196.594 12.2455 197.176 12.7367C197.771 13.2586 198.23 13.9118 198.514 14.642C198.875 15.6489 199.04 16.7128 199 17.779V20.3196H138.982C138.957 21.3898 138.869 22.4577 138.716 23.5176C138.539 24.0786 138.192 24.5738 137.721 24.9378C137.153 25.365 136.504 25.6777 135.812 25.858C133.977 26.0987 132.127 26.2119 130.276 26.1968C129.931 26.1968 129.599 26.1968 129.293 26.1718V24.2062C129.561 24.2265 134.223 24.117 134.692 23.8556C134.898 23.764 135.082 23.6296 135.23 23.4618C135.377 23.294 135.486 23.0968 135.548 22.8838C135.622 22.5849 135.673 20.9276 135.687 20.3196H129.218V15.1624C129.247 14.3098 129.597 13.4978 130.201 12.8821C130.805 12.2665 131.62 11.8906 132.489 11.8267H138.982V17.8783H158.068C158.117 17.1336 157.921 16.393 157.508 15.7657C157.155 15.3278 156.654 15.0269 156.095 14.9167C155.179 14.8024 154.255 14.7574 153.332 14.7821H146.743V11.4957L152.869 11.4816C154.254 11.4353 155.64 11.5271 157.006 11.7555C157.765 11.9068 158.471 12.2457 159.058 12.7398C159.644 13.2682 160.101 13.9196 160.394 14.6452C160.746 15.6538 160.909 16.7167 160.874 17.7821L166.184 17.8815V11.8267H173.122C173.994 11.8898 174.811 12.265 175.417 12.8805C176.023 13.4959 176.376 14.3084 176.408 15.1624V17.8783H196.193C196.246 17.1316 196.044 16.3888 195.62 15.7657C195.274 15.3262 194.776 15.0246 194.219 14.9167C193.304 14.8027 192.382 14.7577 191.46 14.7821L188.709 14.779ZM98.5298 7.97926C98.5372 7.68093 98.6342 7.39133 98.8088 7.1466C98.9834 6.90186 99.2279 6.71282 99.5116 6.60305C99.7954 6.49329 100.106 6.46767 100.404 6.52938C100.703 6.59109 100.976 6.73741 101.19 6.95008C101.405 7.16274 101.55 7.43234 101.608 7.72525C101.667 8.01815 101.636 8.32139 101.519 8.59713C101.402 8.87287 101.205 9.10892 100.952 9.27581C100.699 9.4427 100.402 9.53306 100.096 9.5356C99.678 9.53106 99.2785 9.36486 98.985 9.07328C98.6915 8.7817 98.5278 8.38842 98.5298 7.97926ZM150.835 23.678C150.83 23.4741 150.867 23.2712 150.944 23.0815C151.02 22.8917 151.135 22.7188 151.281 22.5729C151.426 22.427 151.601 22.3111 151.793 22.232C151.985 22.1529 152.192 22.1121 152.4 22.1121C152.609 22.1121 152.815 22.1529 153.008 22.232C153.2 22.3111 153.374 22.427 153.52 22.5729C153.666 22.7188 153.78 22.8917 153.857 23.0815C153.933 23.2712 153.97 23.4741 153.966 23.678C153.97 23.882 153.933 24.0848 153.857 24.2746C153.78 24.4643 153.666 24.6372 153.52 24.7831C153.374 24.929 153.2 25.0449 153.008 25.124C152.815 25.2032 152.609 25.2439 152.4 25.2439C152.192 25.2439 151.985 25.2032 151.793 25.124C151.601 25.0449 151.426 24.929 151.281 24.7831C151.135 24.6372 151.02 24.4643 150.944 24.2746C150.867 24.0848 150.83 23.882 150.835 23.678Z" fill="white"/>
<path fill-rule="evenodd" clip-rule="evenodd" d="M50.6261 41.6967C50.6361 42.122 50.5604 42.5451 50.4032 42.9419C50.246 43.3386 50.0104 43.7012 49.7099 44.0089C49.3435 44.3425 48.91 44.5978 48.4371 44.7584C47.9641 44.919 47.4621 44.9814 46.9631 44.9416C46.3803 44.9523 45.7978 44.9062 45.2244 44.8039C44.8506 44.7292 44.4905 44.5996 44.1562 44.4197V42.3563C44.4537 42.4684 44.759 42.5592 45.07 42.6278C45.454 42.7134 45.8467 42.7559 46.2406 42.7546C46.5818 42.7632 46.915 42.6522 47.1799 42.4416C47.3256 42.3179 47.4387 42.1618 47.5096 41.9864C47.5805 41.8109 47.6071 41.6214 47.5872 41.4337V31.3398H50.6277L50.6261 41.6967Z" fill="white"/>
<path fill-rule="evenodd" clip-rule="evenodd" d="M61.6449 44.8167H58.9749L58.9253 43.4865C58.6694 43.9342 58.2835 44.2977 57.8163 44.5311C57.2552 44.8132 56.6309 44.9541 56 44.9411C55.5332 44.9743 55.0644 44.9152 54.6215 44.7674C54.1785 44.6195 53.7706 44.3858 53.422 44.0804C53.1065 43.7258 52.8661 43.3134 52.715 42.8671C52.5639 42.4209 52.5051 41.9497 52.5419 41.481V41.3135C52.5132 40.8119 52.6038 40.3106 52.8066 39.849C53.0095 39.3874 53.319 38.978 53.7109 38.6531C54.6196 37.9939 55.7351 37.6654 56.865 37.7243C57.2616 37.7251 57.6557 37.7875 58.0324 37.909C58.3481 37.9791 58.6413 38.1242 58.8861 38.3315V37.3229C58.8833 37.1473 58.8384 36.9747 58.755 36.8192C58.6716 36.6636 58.5521 36.5292 58.406 36.427C58.0048 36.1643 57.5282 36.0338 57.0458 36.0545C56.4727 36.0463 55.9016 36.1231 55.3519 36.2822C54.9032 36.3985 54.4726 36.5735 54.0718 36.8026V35.0365C54.5787 34.8307 55.1015 34.6643 55.6352 34.5389C56.3339 34.3975 57.0461 34.3304 57.7595 34.3386C58.2835 34.2946 58.8112 34.352 59.3125 34.5076C59.8137 34.6632 60.2787 34.9139 60.6808 35.2455C61.0346 35.6313 61.3028 36.0846 61.4688 36.5768C61.6347 37.069 61.6947 37.5894 61.6449 38.1054V44.8167ZM58.9005 41.3871V41.1124C58.9419 40.604 58.7872 40.0987 58.4668 39.6962C58.3016 39.5256 58.1001 39.3924 57.8766 39.3062C57.653 39.2199 57.4129 39.1827 57.173 39.197C56.9376 39.1848 56.7022 39.2207 56.4818 39.3025C56.2613 39.3843 56.0608 39.5101 55.8928 39.6719C55.7194 39.8713 55.5887 40.1028 55.5085 40.3525C55.4282 40.6022 55.4 40.8652 55.4256 41.1258V41.3996C55.3906 41.6533 55.4171 41.9115 55.503 42.1533C55.5889 42.3951 55.7318 42.6138 55.92 42.7916C56.2894 43.0378 56.7305 43.16 57.177 43.1398C57.6134 43.1429 58.0374 42.9983 58.3772 42.7306C58.5589 42.5573 58.6997 42.3472 58.7898 42.1152C58.8799 41.8832 58.9171 41.6347 58.8989 41.3871" fill="white"/>
<path fill-rule="evenodd" clip-rule="evenodd" d="M78.9434 44.8176H76.0845V37.6188C76.0809 37.4717 76.0452 37.3271 75.9798 37.1946C75.9144 37.0621 75.8208 36.9448 75.7053 36.8505C75.4649 36.628 75.1449 36.5066 74.8139 36.5124C74.4018 36.5063 73.9964 36.6149 73.645 36.8254C73.3329 37.035 73.0689 37.3057 72.8696 37.6204V44.8192H70.0196V37.6204C70.0209 37.4749 69.99 37.3308 69.9288 37.1981C69.8675 37.0654 69.7776 36.9473 69.6651 36.852C69.5415 36.7344 69.394 36.6436 69.2322 36.5853C69.0704 36.5271 68.8978 36.5028 68.7258 36.514C68.3515 36.4988 67.9792 36.5761 67.6436 36.7388C67.3079 36.9016 67.0197 37.1445 66.8055 37.4451V44.8168H63.957V34.5398H66.7023L66.7559 36.1674C67.0507 35.6135 67.4994 35.1524 68.0505 34.8372C68.667 34.4873 69.372 34.3148 70.0844 34.3395C70.6938 34.3074 71.2943 34.4929 71.7743 34.8614C72.2199 35.23 72.5425 35.7205 72.7008 36.2699C72.9782 35.6285 73.4684 35.0971 74.0922 34.7613C74.7046 34.4913 75.3673 34.348 76.0389 34.3403C76.4308 34.3184 76.8226 34.3856 77.1834 34.5367C77.5442 34.6878 77.8643 34.9187 78.1185 35.2112C78.6848 35.8648 78.9793 36.7026 78.9434 37.5586V44.8176Z" fill="white"/>
<path fill-rule="evenodd" clip-rule="evenodd" d="M84.283 32.2611C84.2895 32.4615 84.2532 32.6611 84.1766 32.8471C84.1001 33.0331 83.9848 33.2015 83.8382 33.3417C83.7031 33.4816 83.5398 33.5925 83.3585 33.6673C83.1772 33.7421 82.9819 33.7791 82.7852 33.776C82.5887 33.7777 82.3939 33.74 82.2128 33.6653C82.0317 33.5906 81.8682 33.4805 81.7322 33.3417C81.5897 33.1992 81.4779 33.03 81.4035 32.8444C81.3292 32.6588 81.2937 32.4604 81.2994 32.2611C81.294 32.0635 81.3295 31.8668 81.4039 31.683C81.4783 31.4992 81.59 31.332 81.7322 31.1915C81.8682 31.0528 82.0318 30.9428 82.2129 30.8682C82.394 30.7937 82.5887 30.7562 82.7852 30.758C82.9818 30.7551 83.1769 30.7921 83.3582 30.8667C83.5394 30.9414 83.7028 31.0519 83.8382 31.1915C83.9846 31.3295 84.0999 31.4959 84.1765 31.6802C84.2531 31.8644 84.2894 32.0623 84.283 32.2611ZM84.2222 44.1445C84.2827 45.1733 83.9511 46.1874 83.2917 46.9911C82.9868 47.3216 82.6116 47.5829 82.1925 47.7566C81.7734 47.9303 81.3206 48.0122 80.8657 47.9966C80.4157 47.9942 79.9662 47.968 79.5191 47.9184C79.1113 47.8845 78.7074 47.8146 78.3125 47.7095V45.7533C78.5503 45.836 78.7975 45.8904 79.0486 45.9152C79.3565 45.9558 79.6669 45.9765 79.9776 45.9771C80.1634 45.9911 80.3503 45.9686 80.5271 45.911C80.704 45.8533 80.8672 45.7617 81.0073 45.6414C81.1407 45.4853 81.2408 45.3047 81.302 45.1103C81.3631 44.9159 81.384 44.7115 81.3634 44.5091V34.5365H84.2222V44.1445Z" fill="white"/>
<path fill-rule="evenodd" clip-rule="evenodd" d="M96.4636 39.9915C96.5045 40.6699 96.4038 41.3494 96.1676 41.9885C95.9314 42.6276 95.5647 43.213 95.0897 43.7091C94.361 44.4549 93.4172 44.9658 92.3841 45.1737C91.351 45.3816 90.2776 45.2767 89.307 44.8729C88.3364 44.4691 87.5147 43.7856 86.9514 42.9135C86.388 42.0414 86.1099 41.0222 86.1539 39.9915V39.3319C86.1222 38.6633 86.2283 37.9953 86.4658 37.3675C86.7033 36.7398 87.0674 36.1652 87.5365 35.6778C88.5766 34.7732 89.92 34.2734 91.3119 34.2734C92.7038 34.2734 94.0473 34.7732 95.0873 35.6778C95.5508 36.1682 95.9108 36.7434 96.1466 37.3701C96.3823 37.9969 96.4892 38.6631 96.4612 39.3304L96.4636 39.9915ZM93.5263 39.7427V39.5862C93.6291 38.5974 93.4017 37.6025 92.8782 36.7505C92.6957 36.5136 92.4592 36.3216 92.1875 36.1897C91.9158 36.0578 91.6165 35.9897 91.3131 35.9908C91.0001 35.9855 90.6908 36.057 90.4132 36.1985C90.1357 36.3401 89.8988 36.5474 89.7241 36.8014C89.2439 37.65 89.0322 38.619 89.116 39.5854V39.7419C89.0144 40.7383 89.218 41.7417 89.7009 42.6246C89.896 42.8555 90.143 43.0392 90.4227 43.1614C90.7023 43.2836 91.0071 43.3408 91.3131 43.3288C91.608 43.3306 91.8997 43.2693 92.1677 43.1491C92.4357 43.029 92.6736 42.8529 92.8646 42.6332C93.3127 42.1739 93.5263 41.2059 93.5263 39.738" fill="white"/>
<path fill-rule="evenodd" clip-rule="evenodd" d="M108.361 39.9911C108.39 40.6706 108.278 41.3488 108.032 41.9849C107.786 42.621 107.41 43.2019 106.929 43.6926C106.447 44.1833 105.869 44.5738 105.23 44.8405C104.59 45.1073 103.902 45.2448 103.206 45.2448C102.511 45.2448 101.823 45.1073 101.183 44.8405C100.543 44.5738 99.9651 44.1833 99.4836 43.6926C99.0021 43.2019 98.627 42.621 98.3809 41.9849C98.1348 41.3488 98.0227 40.6706 98.0515 39.9911V39.3314C98.0226 38.6631 98.1303 37.9958 98.3682 37.3687C98.6062 36.7415 98.9696 36.167 99.4373 35.6789C100.477 34.7736 101.82 34.2734 103.211 34.2734C104.603 34.2734 105.946 34.7736 106.986 35.6789C107.452 36.1676 107.814 36.7423 108.05 37.3695C108.286 37.9967 108.392 38.6637 108.361 39.3314V39.9911ZM105.424 39.7422V39.5857C105.522 38.5981 105.298 37.6056 104.784 36.7501C104.599 36.5138 104.36 36.3225 104.087 36.1909C103.814 36.0592 103.514 35.9909 103.21 35.9911C102.897 35.9863 102.588 36.0576 102.311 36.1984C102.033 36.3391 101.795 36.5451 101.619 36.7978C101.139 37.6463 100.927 38.6154 101.011 39.5818V39.7383C101.011 41.1807 101.21 42.1416 101.608 42.6209C101.8 42.8528 102.044 43.0374 102.322 43.1597C102.6 43.2821 102.904 43.3387 103.208 43.3252C103.505 43.3269 103.798 43.2656 104.068 43.1455C104.338 43.0254 104.578 42.8494 104.772 42.6296C105.204 42.1702 105.419 41.2023 105.419 39.7344" fill="white"/>
<path fill-rule="evenodd" clip-rule="evenodd" d="M125.377 44.818H122.507V37.6192C122.506 37.4714 122.471 37.3255 122.405 37.1925C122.339 37.0595 122.244 36.9428 122.125 36.8508C122.007 36.7394 121.868 36.6522 121.715 36.5941C121.562 36.5361 121.399 36.5084 121.235 36.5128C120.823 36.5064 120.418 36.615 120.068 36.8258C119.756 37.033 119.495 37.3043 119.302 37.6208V44.8195H116.443V37.6208C116.444 37.4762 116.414 37.3331 116.355 37.2007C116.295 37.0684 116.208 36.9497 116.099 36.8524C115.972 36.7357 115.822 36.6455 115.658 36.5874C115.494 36.5293 115.32 36.5044 115.146 36.5144C114.748 36.4996 114.353 36.5905 114.003 36.7773C113.698 36.9364 113.436 37.1657 113.241 37.4455V44.8172H110.395V34.5402H113.128L113.177 36.1677C113.476 35.6172 113.923 35.1571 114.47 34.8375C115.088 34.4878 115.795 34.3154 116.508 34.3399C117.118 34.306 117.719 34.4916 118.198 34.8618C118.647 35.2301 118.974 35.7202 119.138 36.2702C119.404 35.6281 119.889 35.0957 120.511 34.7632C121.123 34.4932 121.786 34.3499 122.457 34.3422C122.849 34.3202 123.241 34.3874 123.602 34.5387C123.963 34.6899 124.283 34.9211 124.538 35.2139C125.107 35.8664 125.406 36.704 125.374 37.5613L125.377 44.818Z" fill="white"/>
<path fill-rule="evenodd" clip-rule="evenodd" d="M140.807 35.9079C140.84 36.3881 140.763 36.8695 140.581 37.3165C140.398 37.7635 140.115 38.1646 139.752 38.4901C138.886 39.1199 137.819 39.4275 136.742 39.3578H134.912V44.8164H131.871V31.3438H136.931C138.379 31.3438 139.371 31.7013 139.942 32.3977C140.513 33.0868 140.819 33.9499 140.806 34.8367L140.807 35.9079ZM137.694 36.1035V34.7991C137.712 34.591 137.682 34.3814 137.608 34.1857C137.533 33.99 137.414 33.8131 137.261 33.6677C136.852 33.3843 136.351 33.2556 135.853 33.3054H134.909V37.5112H136.029C136.459 37.5225 136.879 37.39 137.222 37.1356C137.377 37.0113 137.5 36.8533 137.582 36.6741C137.664 36.4949 137.702 36.2996 137.693 36.1035" fill="white"/>
<path fill-rule="evenodd" clip-rule="evenodd" d="M151.206 44.8171H148.359V37.6184C148.365 37.3275 148.262 37.0444 148.068 36.8234C147.953 36.7122 147.815 36.6267 147.663 36.5726C147.511 36.5186 147.349 36.4974 147.188 36.5104C146.784 36.5092 146.385 36.5944 146.018 36.76C145.675 36.9184 145.374 37.1516 145.138 37.4416V44.8132H142.289V31.3438H145.138V36.1168C145.494 35.6275 145.948 35.2136 146.472 34.9001C147.116 34.51 147.864 34.3155 148.62 34.3414C148.986 34.3151 149.353 34.3759 149.689 34.5186C150.026 34.6613 150.322 34.8816 150.552 35.1607C151.041 35.8882 151.269 36.7542 151.199 37.6223L151.206 44.8171Z" fill="white"/>
<path fill-rule="evenodd" clip-rule="evenodd" d="M162.123 44.8166H159.454L159.392 43.4864C159.144 43.9394 158.756 44.3047 158.284 44.531C157.732 44.813 157.116 44.9541 156.494 44.941C156.024 44.9752 155.552 44.9166 155.106 44.7687C154.66 44.6209 154.249 44.3867 153.897 44.0803C153.583 43.7251 153.344 43.3125 153.194 42.8663C153.043 42.4201 152.985 41.9492 153.023 41.4809V41.3135C152.994 40.8119 153.084 40.3106 153.287 39.849C153.49 39.3874 153.799 38.978 154.191 38.6531C155.099 37.9924 156.215 37.6638 157.346 37.7243C157.744 37.7245 158.139 37.7868 158.516 37.9089C158.831 37.9799 159.123 38.1249 159.367 38.3315V37.3229C159.364 37.1473 159.319 36.9749 159.235 36.8194C159.152 36.6639 159.033 36.5295 158.887 36.4269C158.486 36.1641 158.009 36.0336 157.527 36.0545C156.955 36.0465 156.385 36.1232 155.837 36.2822C155.383 36.3999 154.947 36.5748 154.54 36.8025V35.0365C155.052 34.8324 155.58 34.6661 156.118 34.5388C156.816 34.3971 157.527 34.3299 158.24 34.3385C158.764 34.2946 159.292 34.3521 159.794 34.5077C160.295 34.6633 160.76 34.914 161.162 35.2454C161.516 35.6312 161.785 36.0845 161.951 36.5766C162.117 37.0688 162.177 37.5893 162.127 38.1053L162.123 44.8166ZM159.377 41.387V41.1124C159.414 40.6046 159.26 40.1011 158.945 39.6961C158.78 39.5249 158.578 39.3913 158.355 39.305C158.131 39.2187 157.89 39.1818 157.65 39.1969C157.416 39.1853 157.182 39.2216 156.963 39.3034C156.744 39.3851 156.544 39.5106 156.378 39.6718C156.203 39.8706 156.071 40.1019 155.991 40.3518C155.91 40.6016 155.882 40.8649 155.909 41.1257V41.3995C155.875 41.652 155.901 41.9086 155.984 42.1498C156.067 42.391 156.206 42.6105 156.389 42.7916C156.767 43.0368 157.215 43.1586 157.669 43.1398C158.1 43.1395 158.517 42.9951 158.852 42.7305C159.033 42.5567 159.173 42.3465 159.263 42.1146C159.353 41.8826 159.39 41.6344 159.372 41.387" fill="white"/>
<path fill-rule="evenodd" clip-rule="evenodd" d="M172.127 37.6578H169.495C169.501 37.3998 169.434 37.1452 169.303 36.9215C169.228 36.8072 169.121 36.7162 168.995 36.659C168.869 36.6018 168.729 36.5807 168.592 36.5983C168.282 36.5882 167.979 36.6905 167.741 36.8855C167.536 37.034 167.378 37.236 167.284 37.4684V44.8158H164.438V34.538H167.183L167.222 36.1648C167.442 35.6358 167.8 35.1731 168.262 34.8237C168.69 34.4972 169.22 34.3255 169.762 34.3377C170.132 34.3114 170.503 34.3765 170.84 34.5269C171.177 34.6773 171.47 34.9082 171.692 35.1985C172.158 35.9332 172.313 36.8164 172.124 37.6609" fill="white"/>
<path fill-rule="evenodd" clip-rule="evenodd" d="M188.284 44.8172H185.436V37.6184C185.43 37.4717 185.393 37.3277 185.327 37.1955C185.262 37.0633 185.169 36.9457 185.055 36.8501C184.81 36.6289 184.487 36.508 184.153 36.512C183.74 36.504 183.333 36.6127 182.981 36.825C182.678 37.0398 182.42 37.3097 182.222 37.62V44.8188H179.362V37.62C179.362 37.4755 179.332 37.3325 179.272 37.2002C179.213 37.0678 179.126 36.9491 179.017 36.8516C178.892 36.7358 178.744 36.6461 178.583 36.588C178.422 36.5299 178.25 36.5045 178.078 36.5136C177.675 36.4968 177.275 36.5877 176.921 36.7765C176.614 36.9393 176.349 37.1677 176.145 37.4447V44.8164H173.309V34.5394H176.043L176.092 36.167C176.392 35.6156 176.842 35.1555 177.391 34.8368C178.007 34.4877 178.711 34.3153 179.423 34.3391C180.036 34.309 180.639 34.4941 181.124 34.861C181.567 35.2302 181.886 35.7209 182.04 36.2695C182.319 35.6275 182.812 35.0965 183.438 34.7624C184.045 34.4917 184.703 34.3483 185.37 34.3415C185.763 34.3178 186.156 34.384 186.518 34.5349C186.881 34.6858 187.202 34.9172 187.457 35.2108C188.028 35.8621 188.323 36.7014 188.284 37.5582V44.8172Z" fill="white"/>
<path fill-rule="evenodd" clip-rule="evenodd" d="M199.004 44.8161H196.332L196.281 43.4859C196.032 43.9394 195.644 44.3049 195.172 44.5305C194.616 44.8139 193.996 44.955 193.37 44.9405C192.903 44.9737 192.433 44.9146 191.99 44.7667C191.547 44.6188 191.139 44.3852 190.789 44.0798C190.474 43.7255 190.233 43.3131 190.082 42.8668C189.931 42.4205 189.872 41.9492 189.909 41.4804V41.313C189.884 40.8116 189.976 40.3111 190.179 39.8499C190.382 39.3887 190.69 38.9791 191.08 38.6526C191.983 37.9919 193.095 37.6631 194.22 37.7238C194.617 37.7238 195.011 37.7862 195.388 37.9085C195.703 37.9779 195.995 38.1232 196.238 38.331V37.3224C196.237 37.1473 196.195 36.9748 196.113 36.8191C196.031 36.6633 195.913 36.5287 195.768 36.4265C195.362 36.1633 194.882 36.0329 194.396 36.054C193.827 36.0457 193.26 36.1225 192.715 36.2817C192.262 36.3993 191.827 36.5742 191.42 36.802V35.036C191.932 34.8317 192.459 34.6653 192.996 34.5383C193.694 34.3962 194.405 34.3291 195.117 34.338C196.177 34.2511 197.228 34.5771 198.043 35.2449C198.395 35.6315 198.661 36.0851 198.826 36.5773C198.99 37.0694 199.049 37.5895 198.998 38.1049L199.004 44.8161ZM196.268 41.3865V41.1119C196.306 40.6021 196.148 40.0968 195.824 39.6956C195.66 39.5258 195.46 39.3931 195.238 39.3068C195.016 39.2206 194.777 39.1829 194.539 39.1964C194.304 39.1856 194.069 39.2221 193.848 39.3038C193.628 39.3855 193.427 39.5106 193.259 39.6714C193.087 39.8715 192.958 40.1033 192.88 40.3531C192.802 40.6028 192.776 40.8654 192.803 41.1252V41.3991C192.77 41.6515 192.796 41.9081 192.879 42.1493C192.962 42.3906 193.1 42.61 193.283 42.7911C193.658 43.0378 194.104 43.1599 194.556 43.1393C194.986 43.1408 195.404 42.9961 195.737 42.7301C195.923 42.559 196.067 42.3496 196.159 42.1172C196.251 41.8848 196.289 41.6352 196.27 41.3865" fill="white"/>
</g>
<defs>
<clipPath id="clip0_1303_6993">
<rect width="199" height="48" fill="white"/>
</clipPath>
</defs>
</svg>
