<svg width="25" height="24" viewBox="0 0 25 24" fill="none" xmlns="http://www.w3.org/2000/svg">
<g clip-path="url(#clip0_1245_26195)">
<path d="M1.42673 19.5954C3.64873 21.0054 6.23473 21.7504 8.90473 21.7504C12.8147 21.7504 16.3977 20.2484 18.9947 17.5214C21.4797 14.9114 22.8467 11.4044 22.7787 7.84538C23.7207 7.03938 24.8287 5.50038 24.8287 4.00038C24.8287 3.42538 24.2047 3.06038 23.6987 3.35338C22.8137 3.87338 22.0067 4.00938 21.1767 3.77638C19.4817 2.12438 16.9587 1.77638 14.8327 2.92238C12.9747 3.92238 11.9417 5.75238 12.0347 7.75238C8.89573 7.36938 5.99573 5.79538 3.97373 3.34938C3.64173 2.95038 3.01173 2.99738 2.74773 3.44938C1.77373 5.11738 1.78373 7.05038 2.63073 8.61138C2.22773 8.68238 1.97873 9.02138 1.97873 9.38838C1.97873 10.9574 2.68473 12.3994 3.82173 13.3834C3.60973 13.5874 3.53973 13.8904 3.62973 14.1604C4.12973 15.6624 5.26173 16.8364 6.67673 17.4244C5.13773 18.1594 3.43573 18.4044 1.92073 18.2184C1.13673 18.1124 0.749728 19.1664 1.42673 19.5954ZM9.10973 17.6814C9.67073 17.2504 9.37273 16.3524 8.66873 16.3374C7.42873 16.3114 6.29973 15.7004 5.59673 14.7394C5.93573 14.7174 6.28673 14.6654 6.62073 14.5754C7.38173 14.3694 7.34573 13.2714 6.57273 13.1164C5.16973 12.8344 4.06873 11.8124 3.65573 10.4964C4.03273 10.5894 4.41673 10.6414 4.79973 10.6484C5.55873 10.6524 5.84573 9.67938 5.22673 9.27238C3.83173 8.35338 3.23673 6.73038 3.63073 5.20438C6.06673 7.67238 9.37173 9.15938 12.8677 9.32738C13.3687 9.35838 13.7447 8.88738 13.6347 8.41038C13.1597 6.35138 14.3097 4.90838 15.5447 4.24338C16.7667 3.58338 18.7287 3.37738 20.2327 4.95538C20.6797 5.42638 22.1877 5.44438 22.9547 5.26538C22.6107 5.91338 22.0817 6.52838 21.5867 6.87438C21.3757 7.02238 21.2547 7.26838 21.2677 7.52538C21.4287 10.8104 20.2047 14.0764 17.9097 16.4854C15.5977 18.9124 12.4007 20.2494 8.90573 20.2494C7.51573 20.2494 6.15273 20.0234 4.86473 19.5874C6.40473 19.2894 7.86773 18.6374 9.10973 17.6814Z" fill="black"/>
</g>
<defs>
<clipPath id="clip0_1245_26195">
<rect width="24" height="24" fill="white" transform="translate(0.953125)"/>
</clipPath>
</defs>
</svg>
