<?xml version="1.0" encoding="UTF-8"?>
<svg xmlns="http://www.w3.org/2000/svg" width="32" height="31" viewBox="0 0 32 31" fill="none">
  <g clip-path="url(#clip0_1214_9016)">
    <path d="M32 15.5C32 7.21484 24.8375 0.5 16 0.5C7.1625 0.5 0 7.21484 0 15.5C0 23.7852 7.1625 30.5 16 30.5C16.0938 30.5 16.1875 30.5 16.2812 30.4941V18.8223H12.8438V15.0664H16.2812V12.3008C16.2812 9.0957 18.3688 7.34961 21.4188 7.34961C22.8813 7.34961 24.1375 7.44922 24.5 7.49609V10.8477H22.4C20.7437 10.8477 20.4188 11.5859 20.4188 12.6699V15.0605H24.3875L23.8687 18.8164H20.4188V29.9199C27.1063 28.1211 32 22.3496 32 15.5Z" fill="white"></path>
  </g>
  <defs>
    <clipPath id="clip0_1214_9016">
      <rect width="32" height="30" fill="white" transform="translate(0 0.5)"></rect>
    </clipPath>
  </defs>
</svg>
